<?xml version="1.0" encoding="utf-8"?>
<!-- Generator: Adobe Illustrator 19.1.0, SVG Export Plug-In . SVG Version: 6.00 Build 0)  -->
<svg version="1.1" id="Layer_1" xmlns="http://www.w3.org/2000/svg" xmlns:xlink="http://www.w3.org/1999/xlink" x="0px" y="0px"
	 viewBox="0 0 64 64" enable-background="new 0 0 64 64" xml:space="preserve">
<g id="Pyramid">
	<path d="M63.8945007,62.551712l-31-62.0429993c-0.3398018-0.6783-1.4492016-0.6783-1.7890015,0L0.1055008,62.551712
		c-0.1553,0.3097992-0.1387,0.6781998,0.0439,0.9734001c0.1826048,0.2951012,0.5038999,0.4749031,0.8506048,0.4749031h62
		c0.3466949,0,0.6680031-0.1798019,0.8505936-0.4749031C64.0331955,63.2299118,64.0497971,62.8615112,63.8945007,62.551712z
		 M25.4673004,37.7579117c-2.1189003,1.8363991-3.4672947,4.540802-3.4672947,7.5592003
		c0,3.0184021,1.3483944,5.7229004,3.4672947,7.5592003c-8.2611008-1.1668015-13.4672947-4.449398-13.4672947-7.5592003
		C12.0000057,42.2073135,17.2061996,38.9247131,25.4673004,37.7579117z M24.0000057,45.317112
		c0-4.4141998,3.5888939-8.0056,7.9999981-8.0056c4.4110947,0,8,3.5914001,8,8.0056s-3.5889053,8.0056-8,8.0056
		C27.5888996,53.3227119,24.0000057,49.7313118,24.0000057,45.317112z M42.0000038,45.317112
		c0-3.0183983-1.3484039-5.7228012-3.4673042-7.5592003c8.2611008,1.1668015,13.4673042,4.4494019,13.4673042,7.5592003
		c0,3.1098022-5.2062035,6.3923988-13.4673042,7.5592003C40.6515999,51.0400124,42.0000038,48.3355141,42.0000038,45.317112z
		 M32.0000038,3.1941125l18.2066956,36.4387016c-3.9258003-2.6268997-10.5485001-4.3226013-18.2066956-4.3226013
		s-14.2809029,1.6957016-18.2067032,4.3226013L32.0000038,3.1941125z M2.6182008,61.9986115l7.6210999-15.2528992
		c1.4848995,4.9090996,10.4954996,8.5783997,21.760704,8.5783997s20.275795-3.6693001,21.7606964-8.5783997l7.6210976,15.2528992
		H2.6182008z"/>
	<path d="M32.0000038,39.312912c-3.3086033,0-5.9999981,2.6933022-5.9999981,6.0042c0,3.3109016,2.6913948,6.0042,5.9999981,6.0042
		c3.3085976,0,6-2.6932983,6-6.0042C38.0000038,42.0062141,35.3086014,39.312912,32.0000038,39.312912z M32.0000038,49.319912
		c-2.2061043,0-3.9999981-1.7952003-3.9999981-4.0028s1.7938938-4.0028,3.9999981-4.0028c2.2060966,0,4,1.7952003,4,4.0028
		S34.2061005,49.319912,32.0000038,49.319912z"/>
</g>
<g>
</g>
<g>
</g>
<g>
</g>
<g>
</g>
<g>
</g>
<g>
</g>
<g>
</g>
<g>
</g>
<g>
</g>
<g>
</g>
<g>
</g>
<g>
</g>
<g>
</g>
<g>
</g>
<g>
</g>
</svg>
